<?xml version="1.0" encoding="UTF-8"?>
<svg id="Layer_1" xmlns="http://www.w3.org/2000/svg" version="1.1" viewBox="0 0 1200 1200">
  <!-- Generator: Adobe Illustrator 29.3.0, SVG Export Plug-In . SVG Version: 2.1.0 Build 146)  -->
  <defs>
    <style>
      .st0 {
        fill: #cc5442;
      }
    </style>
  </defs>
  <path class="st0" d="M601.1,1005c-7.6,0-15.3-1.5-22.3-4.6l-.5-.2-129.2-66.5c-14.1-6.4-22.9-18.4-22.9-31.4v-136c0-5.7-4.3-11.1-11.4-14.6l-169.3-82.5c-13.5-6.6-21.5-18.1-21.5-30.8v-313.1c0-13.2,8.9-25.3,23.4-31.6l129.4-56.7c16.5-7.2,36.6-5.8,51.2,3.8,10.4,6.8,16.4,17,16.4,27.9v375.5c0,6,4.9,11.8,12.7,15.2l.4.2,165.8,81c14.4,6.3,23.4,18.4,23.4,31.6v196.9c0,10.9-6,21.1-16.4,27.9-8.4,5.5-18.6,8.3-29,8.3ZM586.3,984c12.6,5.5,26.1,2.8,34-2.4,3.1-2,8.3-6.3,8.3-12.8v-196.9c0-6-4.9-11.8-12.7-15.2l-.4-.2-165.8-81c-14.4-6.3-23.4-18.4-23.4-31.6v-375.5c0-6.5-5.1-10.8-8.2-12.8-7.9-5.2-21.5-7.9-34.1-2.3l-129.4,56.7c-7.8,3.4-12.6,9.2-12.6,15.1v313.1c0,5.7,4.3,11.1,11.4,14.6l169.3,82.5c13.5,6.6,21.5,18.1,21.5,30.8v136c0,5.9,4.8,11.7,12.5,15.1l.5.2,129.1,66.5Z"/>
  <path class="st0" d="M874.5,895.5c-7.6,0-15.3-1.5-22.3-4.6l-129.4-57.4c-14.3-6.3-23.2-18.4-23.2-31.5v-52c0-5.7-4.3-11.1-11.4-14.6l-169.3-82.5c-13.5-6.6-21.5-18.1-21.5-30.8v-225.4c0-13.2,8.9-25.3,23.4-31.6l129.4-56.7c16.5-7.2,36.6-5.8,51.2,3.8,10.4,6.8,16.4,17,16.4,27.9v287.8c0,6,4.9,11.8,12.7,15.2l166,71.8c14.5,6.3,23.6,18.5,23.6,31.7v112.8c0,10.9-6,21.1-16.4,27.9-8.4,5.5-18.6,8.3-29,8.3ZM672.1,321.7c-4.8,0-9.9.9-14.8,3l-129.4,56.7c-7.8,3.4-12.6,9.2-12.6,15.1v225.4c0,5.7,4.3,11.1,11.4,14.6l169.3,82.5c13.5,6.6,21.5,18.1,21.5,30.8v52c0,5.9,4.8,11.7,12.5,15.1l129.4,57.4c12.6,5.6,26.3,2.9,34.2-2.3,3.1-2,8.3-6.3,8.3-12.8v-112.8c0-6-4.9-11.8-12.7-15.2l-166-71.8c-14.5-6.3-23.6-18.4-23.6-31.7v-287.8c0-6.5-5.1-10.8-8.2-12.8-4.8-3.2-11.8-5.4-19.4-5.4Z"/>
  <path class="st0" d="M942.3,696.9c-6.1,0-12.3-1.2-17.9-3.8l-144.2-63c-11.3-5.1-18.3-14.9-18.3-25.5v-142.6c0-10.6,7.1-20.4,18.4-25.5l144.1-66.2c13.1-5.9,29-4.8,40.6,2.7,8.5,5.5,13.4,13.8,13.4,22.8v271.8c0,9-4.9,17.3-13.4,22.8-6.6,4.3-14.7,6.5-22.7,6.5ZM787.5,613.7l144.2,63c8.6,3.9,18.2,2,23.5-1.4,1.9-1.2,5.2-3.9,5.2-7.7v-271.8c0-3.8-3.2-6.4-5.2-7.7-5.3-3.4-14.8-5.3-23.4-1.4l-144.1,66.2c-4.9,2.2-7.9,5.7-7.9,9.1v142.6c0,3.4,2.9,6.9,7.7,9.1Z"/>
</svg>